<svg width="95" height="35" viewBox="0 0 95 35" fill="none" xmlns="http://www.w3.org/2000/svg">
<path d="M29.3889 21.43L19.5426 1.88118C19.1052 1.01104 18.2145 0.463066 17.2402 0.467804C16.2674 0.470962 15.3799 1.02368 14.9472 1.89697L0.39179 31.292C-0.238306 32.5632 0.282826 34.1045 1.55407 34.733C1.92044 34.9146 2.30893 34.9999 2.69109 34.9999C3.63702 34.9999 4.54664 34.4756 4.99513 33.5708L17.267 8.78539L24.7997 23.7403C25.4377 25.0068 26.9822 25.5169 28.2487 24.8789C29.5152 24.2409 30.0268 22.6965 29.3889 21.43Z" fill="white"/>
<path d="M31.8053 29.7452C31.1294 29.7452 30.4662 30.02 29.9908 30.4969C29.5108 30.9754 29.2375 31.6387 29.2375 32.3146C29.2375 32.9905 29.5108 33.6522 29.9908 34.1291C30.4677 34.6076 31.1294 34.8823 31.8053 34.8823C32.4812 34.8823 33.1445 34.6076 33.6198 34.1291C34.0999 33.649 34.3731 32.9873 34.3731 32.3146C34.3731 31.6371 34.0999 30.9754 33.6198 30.4969C33.1429 30.02 32.4812 29.7452 31.8053 29.7452Z" fill="white"/>
<path d="M51.4479 0.35022C50.0298 0.35022 49.0791 1.50145 49.0791 2.91798V32.3146C49.0791 33.7327 50.0298 34.8823 51.4479 34.8823C52.866 34.8823 53.8167 33.7311 53.8167 32.3146V2.91798C53.8167 1.50145 52.866 0.35022 51.4479 0.35022Z" fill="white"/>
<path d="M60.058 29.7452C59.3805 29.7452 58.7188 30.02 58.2403 30.4969C57.7634 30.9754 57.4902 31.6387 57.4902 32.3146C57.4902 32.9905 57.7634 33.6522 58.2403 34.1291C58.7204 34.6076 59.3821 34.8823 60.058 34.8823C60.7339 34.8823 61.3971 34.6076 61.8725 34.1291C62.351 33.649 62.6258 32.9873 62.6258 32.3146C62.6258 31.6371 62.351 30.9754 61.8725 30.4969C61.3971 30.02 60.7339 29.7452 60.058 29.7452Z" fill="white"/>
<path d="M94.1225 1.10191C93.6456 0.624999 92.9839 0.35022 92.308 0.35022C91.6321 0.35022 90.9688 0.624999 90.4903 1.10191C90.0134 1.58041 89.7402 2.24367 89.7402 2.91956C89.7402 3.59703 90.0134 4.25871 90.4903 4.73563C90.9704 5.21412 91.6321 5.4889 92.308 5.4889C92.9839 5.4889 93.6471 5.2157 94.1225 4.73563C94.6026 4.25397 94.8758 3.59545 94.8758 2.91798C94.8758 2.24209 94.6026 1.58041 94.1225 1.10191Z" fill="white"/>
<path d="M84.4118 1.20288H73.9655C72.5474 1.20288 71.3977 2.15355 71.3977 3.57166C71.3977 4.98978 72.5489 5.94045 73.9655 5.94045H82.242V32.3145C82.242 33.7326 83.1927 34.8822 84.6108 34.8822C86.0289 34.8822 86.9796 33.731 86.9796 32.3145V4.49707C86.9796 4.32336 86.9638 4.15281 86.9369 3.98857C86.959 3.85434 86.9796 3.71695 86.9796 3.57166C86.9796 2.15355 85.8283 1.20288 84.4118 1.20288Z" fill="white"/>
</svg>
